<?xml version="1.0" standalone="no"?>
<!DOCTYPE svg PUBLIC "-//W3C//DTD SVG 20010904//EN"
 "http://www.w3.org/TR/2001/REC-SVG-20010904/DTD/svg10.dtd">
<svg id="svg" xmlns="http://www.w3.org/2000/svg" xmlns:xlink="http://www.w3.org/1999/xlink" width="400" height="400" viewBox="0, 0, 400,400" version="1.1">
<g id="svgg">
<path id="path0" d="M100.551 100.674 C 97.935 101.979,97.971 101.645,97.582 127.983 C 97.127 158.811,97.130 241.496,97.587 272.000 C 97.983 298.369,97.939 297.963,100.546 299.351 C 102.665 300.480,317.508 299.829,318.644 298.690 C 319.218 298.115,317.797 297.217,315.593 296.763 C 310.741 295.765,303.917 294.441,301.400 294.010 C 300.300 293.821,297.780 293.370,295.800 293.007 C 293.820 292.644,291.210 292.195,290.000 292.009 C 288.790 291.823,286.090 291.369,284.000 291.000 C 281.910 290.631,279.210 290.174,278.000 289.985 C 276.790 289.796,274.090 289.346,272.000 288.985 C 269.910 288.624,267.210 288.174,266.000 287.985 C 264.790 287.796,262.090 287.346,260.000 286.985 C 257.910 286.624,255.210 286.174,254.000 285.985 C 252.790 285.796,250.090 285.346,248.000 284.985 C 245.910 284.624,243.210 284.179,242.000 283.996 C 240.790 283.814,238.180 283.364,236.200 282.998 C 234.220 282.632,231.700 282.182,230.600 281.999 C 229.500 281.816,226.890 281.375,224.800 281.018 C 222.710 280.662,220.010 280.204,218.800 280.000 C 217.590 279.797,214.980 279.334,213.000 278.972 C 211.020 278.609,208.500 278.169,207.400 277.995 C 206.300 277.820,203.780 277.371,201.800 276.997 C 199.820 276.624,197.390 276.172,196.400 275.994 C 195.410 275.816,192.980 275.366,191.000 274.994 C 189.020 274.622,186.590 274.176,185.600 274.001 C 184.610 273.827,182.450 273.391,180.800 273.033 C 179.150 272.675,176.810 272.222,175.600 272.027 C 174.390 271.831,173.130 271.581,172.800 271.470 C 172.470 271.360,170.760 270.971,169.000 270.607 C 167.240 270.243,165.170 269.779,164.400 269.575 C 163.630 269.372,161.458 268.847,159.574 268.410 C 148.899 265.930,144.635 263.535,147.900 261.854 C 150.498 260.516,161.296 257.330,167.800 255.982 C 168.680 255.800,170.570 255.367,172.000 255.020 C 173.430 254.672,175.410 254.233,176.400 254.044 C 177.390 253.854,179.910 253.332,182.000 252.883 C 187.197 251.766,191.289 250.911,195.800 250.002 C 196.680 249.824,198.840 249.371,200.600 248.994 C 202.360 248.617,204.520 248.167,205.400 247.994 C 206.280 247.821,208.440 247.369,210.200 246.991 C 211.960 246.612,214.210 246.154,215.200 245.972 C 216.190 245.790,218.260 245.360,219.800 245.015 C 221.340 244.670,223.230 244.286,224.000 244.161 C 224.770 244.036,225.850 243.784,226.400 243.600 C 226.950 243.417,228.840 242.964,230.600 242.593 C 232.360 242.223,235.240 241.559,237.000 241.119 C 238.760 240.679,240.650 240.228,241.200 240.117 C 244.003 239.552,251.997 237.029,253.583 236.209 C 256.618 234.639,252.139 231.910,243.400 230.004 C 242.520 229.812,240.270 229.272,238.400 228.804 C 234.612 227.856,230.813 226.977,227.800 226.353 C 226.700 226.125,225.260 225.781,224.600 225.587 C 223.940 225.394,222.230 225.031,220.800 224.782 C 217.330 224.176,215.706 223.855,211.200 222.884 C 209.110 222.434,206.860 221.961,206.200 221.833 C 205.540 221.705,203.560 221.311,201.800 220.958 C 200.040 220.605,197.790 220.170,196.800 219.993 C 195.810 219.815,193.560 219.380,191.800 219.026 C 190.040 218.673,187.610 218.211,186.400 218.001 C 185.190 217.790,182.850 217.333,181.200 216.985 C 179.550 216.637,177.300 216.193,176.200 215.997 C 175.100 215.801,172.670 215.347,170.800 214.986 C 168.930 214.626,166.590 214.188,165.600 214.013 C 161.903 213.358,159.611 212.815,158.916 212.429 C 158.522 212.211,156.670 211.649,154.800 211.180 C 149.353 209.816,149.136 209.752,146.232 208.642 C 142.752 207.313,142.291 206.951,142.820 205.962 C 143.429 204.825,147.635 203.004,152.000 201.989 C 152.770 201.810,154.390 201.366,155.600 201.001 C 156.810 200.637,159.150 200.183,160.800 199.991 C 162.450 199.800,165.600 199.351,167.800 198.995 C 170.000 198.639,172.970 198.197,174.400 198.014 C 175.830 197.830,178.710 197.384,180.800 197.022 C 182.890 196.659,185.680 196.200,187.000 196.000 C 188.320 195.801,191.020 195.347,193.000 194.992 C 194.980 194.638,197.590 194.195,198.800 194.009 C 200.010 193.824,202.620 193.367,204.600 192.995 C 206.580 192.623,209.010 192.176,210.000 192.002 C 210.990 191.828,213.240 191.375,215.000 190.997 C 216.760 190.618,218.920 190.163,219.800 189.984 C 223.356 189.263,227.536 188.175,229.000 187.588 C 229.440 187.412,230.744 186.947,231.898 186.556 C 236.612 184.955,233.012 182.094,223.600 179.961 C 222.830 179.787,221.120 179.350,219.800 178.992 C 218.480 178.633,216.770 178.193,216.000 178.013 C 202.358 174.832,194.829 172.189,194.806 170.574 C 194.799 170.049,197.650 168.412,199.349 167.965 C 200.037 167.784,201.680 167.342,203.000 166.984 C 204.320 166.626,206.120 166.189,207.000 166.014 C 207.880 165.838,209.950 165.389,211.600 165.015 C 213.250 164.642,215.500 164.188,216.600 164.008 C 217.700 163.828,220.130 163.380,222.000 163.013 C 223.870 162.646,226.390 162.194,227.600 162.008 C 228.810 161.823,231.420 161.364,233.400 160.987 C 235.380 160.611,238.080 160.154,239.400 159.971 C 240.720 159.789,243.510 159.352,245.600 159.002 C 247.690 158.651,250.390 158.208,251.600 158.017 C 252.810 157.827,255.510 157.376,257.600 157.015 C 259.690 156.654,262.390 156.199,263.600 156.003 C 264.810 155.807,267.330 155.357,269.200 155.003 C 271.070 154.650,273.590 154.209,274.800 154.023 C 276.010 153.838,278.440 153.375,280.200 152.994 C 281.960 152.614,284.210 152.164,285.200 151.994 C 286.959 151.694,293.413 150.039,295.800 149.278 C 302.055 147.281,299.862 145.346,288.000 142.396 C 287.010 142.150,285.660 141.792,285.000 141.602 C 284.340 141.411,282.540 140.963,281.000 140.606 C 279.460 140.249,276.400 139.528,274.200 139.005 C 272.000 138.481,268.940 137.768,267.400 137.419 C 265.860 137.071,263.970 136.617,263.200 136.412 C 262.430 136.206,261.350 135.958,260.800 135.860 C 256.179 135.036,242.708 131.114,241.820 130.334 C 241.611 130.150,241.161 129.994,240.820 129.987 C 239.953 129.968,238.400 128.597,238.400 127.850 C 238.400 127.165,239.531 126.447,241.391 125.954 C 242.056 125.777,243.590 125.337,244.800 124.975 C 246.010 124.613,247.720 124.167,248.600 123.984 C 249.480 123.801,251.370 123.367,252.800 123.020 C 254.230 122.672,256.210 122.228,257.200 122.031 C 261.372 121.205,265.933 120.329,267.800 119.997 C 268.900 119.801,271.240 119.348,273.000 118.991 C 274.760 118.633,277.280 118.183,278.600 117.989 C 279.920 117.796,282.530 117.348,284.400 116.994 C 286.270 116.640,288.790 116.198,290.000 116.011 C 291.210 115.824,293.820 115.374,295.800 115.009 C 297.780 114.645,300.390 114.195,301.600 114.009 C 302.810 113.823,305.510 113.376,307.600 113.015 C 309.690 112.654,312.390 112.204,313.600 112.015 C 314.810 111.826,317.510 111.376,319.600 111.015 C 321.690 110.654,324.390 110.204,325.600 110.015 C 326.810 109.826,329.510 109.376,331.600 109.015 C 333.690 108.654,336.390 108.199,337.600 108.003 C 338.810 107.807,341.330 107.357,343.200 107.003 C 345.070 106.650,347.590 106.205,348.800 106.016 C 350.010 105.827,352.620 105.367,354.600 104.995 C 356.580 104.623,359.010 104.171,360.000 103.992 C 366.029 102.900,368.900 101.667,366.894 101.030 C 363.406 99.923,102.756 99.575,100.551 100.674 " stroke="none" fill="#000000" fill-rule="evenodd"/>
<path id="path1" d="M0.000 200.000 L 0.000 400.000 200.000 400.000 L 400.000 400.000 400.000 200.000 L 400.000 0.000 200.000 0.000 L 0.000 0.000 0.000 200.000 M330.194 100.409 C 349.991 100.627,366.506 100.907,366.894 101.030 C 368.900 101.667,366.029 102.900,360.000 103.992 C 359.010 104.171,356.580 104.623,354.600 104.995 C 352.620 105.367,350.010 105.827,348.800 106.016 C 347.590 106.205,345.070 106.650,343.200 107.003 C 341.330 107.357,338.810 107.807,337.600 108.003 C 336.390 108.199,333.690 108.654,331.600 109.015 C 329.510 109.376,326.810 109.826,325.600 110.015 C 324.390 110.204,321.690 110.654,319.600 111.015 C 317.510 111.376,314.810 111.826,313.600 112.015 C 312.390 112.204,309.690 112.654,307.600 113.015 C 305.510 113.376,302.810 113.823,301.600 114.009 C 300.390 114.195,297.780 114.645,295.800 115.009 C 293.820 115.374,291.210 115.824,290.000 116.011 C 288.790 116.198,286.270 116.640,284.400 116.994 C 282.530 117.348,279.920 117.796,278.600 117.989 C 277.280 118.183,274.760 118.633,273.000 118.991 C 271.240 119.348,268.900 119.801,267.800 119.997 C 265.933 120.329,261.372 121.205,257.200 122.031 C 256.210 122.228,254.230 122.672,252.800 123.020 C 251.370 123.367,249.480 123.801,248.600 123.984 C 247.720 124.167,246.010 124.613,244.800 124.975 C 243.590 125.337,242.056 125.777,241.391 125.954 C 239.531 126.447,238.400 127.165,238.400 127.850 C 238.400 128.597,239.953 129.968,240.820 129.987 C 241.161 129.994,241.611 130.150,241.820 130.334 C 242.708 131.114,256.179 135.036,260.800 135.860 C 261.350 135.958,262.430 136.206,263.200 136.412 C 263.970 136.617,265.860 137.071,267.400 137.419 C 268.940 137.768,272.000 138.481,274.200 139.005 C 276.400 139.528,279.460 140.249,281.000 140.606 C 282.540 140.963,284.340 141.411,285.000 141.602 C 285.660 141.792,287.010 142.150,288.000 142.396 C 299.862 145.346,302.055 147.281,295.800 149.278 C 293.413 150.039,286.959 151.694,285.200 151.994 C 284.210 152.164,281.960 152.614,280.200 152.994 C 278.440 153.375,276.010 153.838,274.800 154.023 C 273.590 154.209,271.070 154.650,269.200 155.003 C 267.330 155.357,264.810 155.807,263.600 156.003 C 262.390 156.199,259.690 156.654,257.600 157.015 C 255.510 157.376,252.810 157.827,251.600 158.017 C 250.390 158.208,247.690 158.651,245.600 159.002 C 243.510 159.352,240.720 159.789,239.400 159.971 C 238.080 160.154,235.380 160.611,233.400 160.987 C 231.420 161.364,228.810 161.823,227.600 162.008 C 226.390 162.194,223.870 162.646,222.000 163.013 C 220.130 163.380,217.700 163.828,216.600 164.008 C 215.500 164.188,213.250 164.642,211.600 165.015 C 209.950 165.389,207.880 165.838,207.000 166.014 C 206.120 166.189,204.320 166.626,203.000 166.984 C 201.680 167.342,200.037 167.784,199.349 167.965 C 197.650 168.412,194.799 170.049,194.806 170.574 C 194.829 172.189,202.358 174.832,216.000 178.013 C 216.770 178.193,218.480 178.633,219.800 178.992 C 221.120 179.350,222.830 179.787,223.600 179.961 C 233.012 182.094,236.612 184.955,231.898 186.556 C 230.744 186.947,229.440 187.412,229.000 187.588 C 227.536 188.175,223.356 189.263,219.800 189.984 C 218.920 190.163,216.760 190.618,215.000 190.997 C 213.240 191.375,210.990 191.828,210.000 192.002 C 209.010 192.176,206.580 192.623,204.600 192.995 C 202.620 193.367,200.010 193.824,198.800 194.009 C 197.590 194.195,194.980 194.638,193.000 194.992 C 191.020 195.347,188.320 195.801,187.000 196.000 C 185.680 196.200,182.890 196.659,180.800 197.022 C 178.710 197.384,175.830 197.830,174.400 198.014 C 172.970 198.197,170.000 198.639,167.800 198.995 C 165.600 199.351,162.450 199.800,160.800 199.991 C 159.150 200.183,156.810 200.637,155.600 201.001 C 154.390 201.366,152.770 201.810,152.000 201.989 C 147.635 203.004,143.429 204.825,142.820 205.962 C 142.291 206.951,142.752 207.313,146.232 208.642 C 149.136 209.752,149.353 209.816,154.800 211.180 C 156.670 211.649,158.522 212.211,158.916 212.429 C 159.611 212.815,161.903 213.358,165.600 214.013 C 166.590 214.188,168.930 214.626,170.800 214.986 C 172.670 215.347,175.100 215.801,176.200 215.997 C 177.300 216.193,179.550 216.637,181.200 216.985 C 182.850 217.333,185.190 217.790,186.400 218.001 C 187.610 218.211,190.040 218.673,191.800 219.026 C 193.560 219.380,195.810 219.815,196.800 219.993 C 197.790 220.170,200.040 220.605,201.800 220.958 C 203.560 221.311,205.540 221.705,206.200 221.833 C 206.860 221.961,209.110 222.434,211.200 222.884 C 215.706 223.855,217.330 224.176,220.800 224.782 C 222.230 225.031,223.940 225.394,224.600 225.587 C 225.260 225.781,226.700 226.125,227.800 226.353 C 230.813 226.977,234.612 227.856,238.400 228.804 C 240.270 229.272,242.520 229.812,243.400 230.004 C 252.139 231.910,256.618 234.639,253.583 236.209 C 251.997 237.029,244.003 239.552,241.200 240.117 C 240.650 240.228,238.760 240.679,237.000 241.119 C 235.240 241.559,232.360 242.223,230.600 242.593 C 228.840 242.964,226.950 243.417,226.400 243.600 C 225.850 243.784,224.770 244.036,224.000 244.161 C 223.230 244.286,221.340 244.670,219.800 245.015 C 218.260 245.360,216.190 245.790,215.200 245.972 C 214.210 246.154,211.960 246.612,210.200 246.991 C 208.440 247.369,206.280 247.821,205.400 247.994 C 204.520 248.167,202.360 248.617,200.600 248.994 C 198.840 249.371,196.680 249.824,195.800 250.002 C 191.289 250.911,187.197 251.766,182.000 252.883 C 179.910 253.332,177.390 253.854,176.400 254.044 C 175.410 254.233,173.430 254.672,172.000 255.020 C 170.570 255.367,168.680 255.800,167.800 255.982 C 161.296 257.330,150.498 260.516,147.900 261.854 C 144.635 263.535,148.899 265.930,159.574 268.410 C 161.458 268.847,163.630 269.372,164.400 269.575 C 165.170 269.779,167.240 270.243,169.000 270.607 C 170.760 270.971,172.470 271.360,172.800 271.470 C 173.130 271.581,174.390 271.831,175.600 272.027 C 176.810 272.222,179.150 272.675,180.800 273.033 C 182.450 273.391,184.610 273.827,185.600 274.001 C 186.590 274.176,189.020 274.622,191.000 274.994 C 192.980 275.366,195.410 275.816,196.400 275.994 C 197.390 276.172,199.820 276.624,201.800 276.997 C 203.780 277.371,206.300 277.820,207.400 277.995 C 208.500 278.169,211.020 278.609,213.000 278.972 C 214.980 279.334,217.590 279.797,218.800 280.000 C 220.010 280.204,222.710 280.662,224.800 281.018 C 226.890 281.375,229.500 281.816,230.600 281.999 C 231.700 282.182,234.220 282.632,236.200 282.998 C 238.180 283.364,240.790 283.814,242.000 283.996 C 243.210 284.179,245.910 284.624,248.000 284.985 C 250.090 285.346,252.790 285.796,254.000 285.985 C 255.210 286.174,257.910 286.624,260.000 286.985 C 262.090 287.346,264.790 287.796,266.000 287.985 C 267.210 288.174,269.910 288.624,272.000 288.985 C 274.090 289.346,276.790 289.796,278.000 289.985 C 279.210 290.174,281.910 290.631,284.000 291.000 C 286.090 291.369,288.790 291.823,290.000 292.009 C 291.210 292.195,293.820 292.644,295.800 293.007 C 297.780 293.370,300.300 293.821,301.400 294.010 C 303.917 294.441,310.741 295.765,315.593 296.763 C 317.797 297.217,319.218 298.115,318.644 298.690 C 317.508 299.829,102.665 300.480,100.546 299.351 C 97.939 297.963,97.983 298.369,97.587 272.000 C 97.130 241.496,97.127 158.811,97.582 127.983 C 97.971 101.645,97.935 101.979,100.551 100.674 C 102.069 99.917,268.135 99.725,330.194 100.409 " stroke="none" fill="#ffffff" fill-rule="evenodd"/>
</g>
</svg>
