<svg id="svg" xmlns="http://www.w3.org/2000/svg" xmlns:xlink="http://www.w3.org/1999/xlink" preserveAspectRatio="xMidYMid meet" width="55" height="55" viewBox="0, 0, 400,400" version="1.1"><g id="svgg"><path id="path0" d="M101.558 99.119 C 102.226 99.342,101.528 100.731,100.636 100.955 C 100.147 101.078,99.489 101.678,99.174 102.289 C 98.492 103.611,98.036 103.989,97.408 103.748 C 97.058 103.613,97.049 104.188,97.372 106.085 C 98.197 110.930,97.843 185.138,96.991 185.939 C 96.604 186.302,96.413 186.375,96.567 186.100 C 96.721 185.825,96.657 185.600,96.424 185.600 C 96.133 185.600,96.000 190.132,96.000 200.000 C 96.000 213.710,96.035 214.400,96.735 214.400 C 97.843 214.400,98.729 289.868,97.645 291.926 C 96.869 293.400,96.880 296.704,97.661 296.500 C 98.152 296.372,98.531 296.650,98.867 297.386 C 99.136 297.977,99.861 298.721,100.478 299.040 C 101.651 299.647,101.954 300.578,101.100 300.953 C 100.825 301.074,131.007 301.134,168.171 301.087 C 205.336 301.039,235.441 300.942,235.072 300.871 C 234.468 300.755,234.463 300.680,235.016 300.126 C 235.997 299.146,316.311 298.769,317.283 299.740 C 318.618 301.075,319.141 299.629,317.921 297.978 C 317.162 296.952,316.796 296.800,315.081 296.800 C 313.182 296.800,313.122 296.765,313.364 295.800 C 313.659 294.627,313.637 294.620,312.146 295.398 C 310.372 296.322,308.000 296.097,308.000 295.003 C 308.000 294.621,307.361 294.543,305.460 294.696 C 302.914 294.900,301.085 293.615,303.143 293.067 C 303.509 292.970,303.328 292.872,302.733 292.846 C 302.147 292.821,301.601 292.998,301.520 293.239 C 301.115 294.455,297.611 294.150,297.161 292.860 C 296.778 291.761,296.658 291.685,296.135 292.208 C 295.292 293.051,291.657 293.015,291.329 292.160 C 291.194 291.807,291.335 291.360,291.642 291.166 C 292.072 290.893,292.017 290.814,291.400 290.819 C 290.960 290.822,290.251 291.090,289.824 291.413 C 288.522 292.397,286.583 292.158,285.660 290.900 C 285.013 290.017,284.753 289.899,284.347 290.300 C 283.333 291.300,280.173 290.924,279.377 289.708 C 278.972 289.090,278.592 288.824,278.501 289.096 C 278.062 290.415,273.836 290.145,273.477 288.774 C 273.295 288.077,273.127 288.011,272.456 288.370 C 271.055 289.120,268.087 288.910,267.616 288.029 C 267.314 287.466,267.337 287.212,267.701 287.086 C 268.588 286.781,267.047 287.151,265.376 287.645 C 263.274 288.266,261.441 287.851,261.712 286.816 C 261.842 286.317,261.656 286.003,261.153 285.872 C 260.738 285.763,260.488 285.819,260.597 285.995 C 260.893 286.474,259.753 286.800,257.781 286.800 C 256.003 286.800,254.447 285.518,255.701 285.086 C 256.588 284.781,255.047 285.151,253.376 285.645 C 251.558 286.182,249.600 285.869,249.600 285.041 C 249.600 284.139,248.538 283.464,248.259 284.190 C 247.920 285.074,244.070 285.048,243.729 284.160 C 243.594 283.807,243.735 283.360,244.042 283.166 C 245.028 282.541,243.528 282.755,242.400 283.400 C 240.499 284.487,237.214 283.982,237.714 282.680 C 237.860 282.300,237.660 282.004,237.172 281.877 C 236.747 281.766,236.488 281.819,236.597 281.995 C 236.892 282.472,235.756 282.800,233.810 282.800 C 232.607 282.800,232.012 282.609,231.843 282.167 C 231.508 281.294,231.513 281.281,232.300 281.076 C 232.766 280.954,232.666 280.882,232.000 280.859 C 231.450 280.841,230.651 281.090,230.224 281.413 C 228.781 282.504,226.000 282.063,226.000 280.743 C 226.000 280.105,225.867 280.043,225.226 280.386 C 223.973 281.056,220.417 280.911,220.136 280.178 C 219.942 279.672,219.493 279.606,217.746 279.824 C 215.496 280.105,214.261 279.627,214.647 278.622 C 214.756 278.337,214.559 277.993,214.208 277.858 C 213.833 277.714,213.476 277.858,213.342 278.207 C 212.977 279.159,209.344 279.016,208.816 278.029 C 208.488 277.416,208.546 277.221,209.101 277.075 C 209.672 276.926,209.649 276.884,208.976 276.846 C 208.524 276.821,207.804 277.064,207.376 277.387 C 205.847 278.544,202.223 277.658,203.045 276.328 C 203.200 276.076,202.982 276.089,202.475 276.360 C 201.031 277.133,198.090 276.915,197.600 276.000 C 197.247 275.341,197.298 275.194,197.886 275.168 C 198.279 275.151,198.387 275.050,198.127 274.944 C 197.867 274.838,197.111 275.032,196.447 275.376 C 195.122 276.061,193.691 276.172,192.873 275.654 C 192.427 275.371,192.267 274.984,192.031 273.624 C 192.014 273.526,191.769 273.763,191.487 274.149 C 190.850 275.019,186.927 274.957,187.107 274.079 C 187.190 273.675,186.685 273.619,184.846 273.827 C 182.751 274.064,182.431 274.005,182.060 273.313 C 181.702 272.643,181.325 272.557,179.427 272.714 C 177.614 272.865,177.166 272.776,176.955 272.227 C 176.739 271.663,176.349 271.599,174.524 271.827 C 172.554 272.073,172.331 272.022,172.137 271.282 C 171.946 270.551,171.700 270.489,169.771 270.688 C 167.535 270.919,166.269 270.023,167.637 269.177 C 168.040 268.928,167.954 268.853,167.323 268.901 C 166.846 268.937,166.535 269.094,166.631 269.250 C 166.892 269.672,164.546 270.100,163.609 269.803 C 163.164 269.662,162.800 269.332,162.800 269.070 C 162.800 268.752,162.206 268.642,161.003 268.737 C 159.636 268.846,159.147 268.727,158.961 268.242 C 158.771 267.748,158.372 267.659,157.190 267.848 C 155.953 268.046,155.573 267.946,155.184 267.322 C 154.831 266.758,154.382 266.600,153.497 266.730 C 152.697 266.847,152.179 266.705,151.956 266.307 C 151.752 265.943,151.252 265.777,150.686 265.886 C 150.136 265.991,149.535 265.804,149.227 265.432 C 148.938 265.084,148.400 264.800,148.031 264.800 C 145.523 264.800,146.469 261.283,149.000 261.201 C 149.440 261.186,150.151 260.909,150.579 260.585 C 151.007 260.261,151.657 260.091,152.023 260.207 C 152.388 260.323,152.915 260.144,153.193 259.809 C 153.471 259.474,154.222 259.200,154.863 259.200 C 155.504 259.200,156.479 258.904,157.030 258.543 C 157.839 258.014,158.227 257.975,159.035 258.343 C 160.318 258.928,160.270 258.939,160.516 258.000 C 160.828 256.808,163.108 256.883,163.559 258.100 C 163.874 258.952,163.907 258.932,164.170 257.737 C 164.492 256.269,165.597 255.826,167.542 256.383 C 168.242 256.584,168.724 256.601,168.612 256.420 C 168.214 255.775,169.584 255.138,171.127 255.249 C 172.215 255.328,172.914 255.143,173.412 254.645 C 173.973 254.084,174.494 253.983,175.815 254.181 C 177.177 254.386,177.551 254.305,177.759 253.762 C 177.973 253.205,178.392 253.128,180.209 253.316 C 181.872 253.488,182.400 253.415,182.400 253.014 C 182.400 252.252,183.494 251.944,185.118 252.248 C 186.197 252.451,186.645 252.353,187.025 251.833 C 187.401 251.320,187.998 251.183,189.461 251.277 C 190.895 251.368,191.582 251.218,192.100 250.700 C 192.835 249.965,194.599 249.751,194.970 250.352 C 195.234 250.778,196.786 251.224,196.739 250.859 C 196.561 249.492,196.863 249.200,198.456 249.200 C 199.548 249.200,200.307 249.438,200.686 249.900 C 201.001 250.285,201.145 250.375,201.006 250.100 C 200.867 249.825,200.954 249.600,201.200 249.600 C 201.446 249.600,201.542 249.429,201.412 249.220 C 200.980 248.520,202.833 247.914,204.596 248.179 C 205.977 248.386,206.350 248.306,206.559 247.762 C 206.773 247.205,207.192 247.128,209.009 247.316 C 210.701 247.491,211.200 247.418,211.200 246.998 C 211.200 246.265,212.551 245.882,214.006 246.201 C 214.832 246.383,215.387 246.270,215.826 245.831 C 216.812 244.845,219.153 245.004,219.553 246.085 L 219.881 246.970 220.326 246.138 C 220.571 245.680,220.665 245.198,220.534 245.068 C 219.949 244.483,222.468 243.850,223.632 244.290 C 224.657 244.676,224.863 244.630,225.237 243.930 C 225.596 243.260,225.992 243.150,227.634 243.264 C 228.921 243.353,229.600 243.242,229.600 242.943 C 229.600 242.692,230.050 242.374,230.600 242.236 C 231.755 241.946,233.600 242.320,233.600 242.843 C 233.600 243.615,234.352 243.146,234.472 242.300 C 234.664 240.951,237.058 240.777,237.578 242.074 C 237.902 242.881,237.953 242.900,237.975 242.220 C 237.994 241.613,238.107 241.547,238.480 241.920 C 238.744 242.184,239.149 242.395,239.380 242.388 C 239.611 242.381,239.485 242.192,239.100 241.968 C 237.440 241.001,238.745 239.803,240.998 240.226 C 241.963 240.407,242.350 240.308,242.532 239.834 C 242.830 239.057,245.592 238.937,245.616 239.700 C 245.625 239.975,245.911 239.686,246.251 239.057 C 246.769 238.101,247.055 237.951,247.999 238.140 C 248.777 238.295,249.197 238.185,249.351 237.783 C 249.474 237.462,250.037 237.200,250.602 237.200 C 251.686 237.200,253.462 236.264,254.300 235.252 C 254.970 234.442,254.930 234.000,254.187 234.000 C 253.851 234.000,253.471 233.730,253.345 233.400 C 253.218 233.070,252.684 232.800,252.157 232.800 C 251.561 232.800,251.200 232.567,251.200 232.182 C 251.200 231.693,250.909 231.618,249.807 231.825 C 248.541 232.063,248.371 231.982,247.959 230.943 C 247.707 230.309,247.422 230.023,247.319 230.300 C 247.034 231.069,244.400 230.947,244.400 230.165 C 244.400 229.653,244.110 229.579,242.900 229.783 C 241.856 229.959,241.157 229.852,240.600 229.431 C 240.160 229.098,239.119 228.820,238.287 228.813 C 237.312 228.805,236.692 228.584,236.542 228.192 C 236.358 227.714,235.902 227.638,234.393 227.839 C 232.466 228.094,231.102 227.170,231.907 226.153 C 232.061 225.959,231.929 226.025,231.613 226.300 C 230.753 227.050,227.632 226.948,227.329 226.160 C 227.194 225.807,227.332 225.365,227.637 225.177 C 228.037 224.930,227.946 224.854,227.305 224.902 C 226.819 224.939,226.332 225.201,226.223 225.484 C 225.788 226.619,223.190 225.960,222.734 224.600 C 222.660 224.380,222.420 224.278,222.200 224.374 C 220.893 224.942,218.000 224.846,218.000 224.235 C 218.000 223.694,217.662 223.633,215.841 223.847 C 213.956 224.068,213.629 224.001,213.262 223.316 C 212.903 222.646,212.526 222.557,210.679 222.710 C 208.576 222.884,207.019 221.675,208.542 221.051 C 208.794 220.948,208.700 220.849,208.333 220.832 C 207.967 220.814,207.603 220.992,207.525 221.226 C 207.261 222.017,204.213 222.156,203.468 221.411 C 203.097 221.039,202.887 220.582,203.003 220.395 C 203.118 220.208,203.049 219.954,202.848 219.830 C 202.648 219.706,202.381 219.874,202.254 220.202 C 201.810 221.360,198.527 220.987,197.829 219.700 C 197.501 219.095,197.225 218.817,197.216 219.082 C 197.172 220.421,192.800 220.101,192.800 218.759 C 192.800 218.105,192.669 218.042,192.026 218.386 C 190.890 218.994,188.176 218.893,187.619 218.222 C 187.266 217.797,186.622 217.706,185.178 217.877 C 183.500 218.076,183.176 218.001,182.931 217.355 C 182.451 216.088,181.716 215.520,181.451 216.210 C 181.123 217.067,177.661 217.024,177.329 216.160 C 177.194 215.807,177.332 215.365,177.637 215.177 C 178.036 214.931,177.941 214.854,177.295 214.903 C 176.803 214.940,176.400 215.104,176.400 215.267 C 176.400 215.714,173.787 216.113,172.835 215.811 C 172.368 215.663,172.000 215.206,172.000 214.773 C 172.000 213.952,171.413 213.733,171.000 214.400 C 170.585 215.071,167.210 214.890,166.938 214.183 C 166.753 213.700,166.328 213.622,164.990 213.822 C 162.868 214.141,161.748 213.810,161.481 212.787 C 161.271 211.985,160.400 211.673,160.400 212.400 C 160.400 213.042,159.198 212.860,158.937 212.179 C 158.764 211.729,158.386 211.627,157.558 211.809 C 156.130 212.123,154.680 211.690,154.935 211.026 C 155.079 210.651,154.631 210.572,153.164 210.713 C 151.520 210.871,151.200 210.793,151.200 210.233 C 151.200 209.683,150.947 209.611,149.775 209.831 C 148.576 210.056,148.319 209.976,148.148 209.322 C 147.995 208.736,147.677 208.586,146.848 208.708 C 145.627 208.887,143.304 207.757,142.634 206.658 C 142.146 205.857,143.988 204.006,145.276 204.002 C 145.648 204.001,146.064 203.820,146.200 203.600 C 146.336 203.380,146.989 203.200,147.652 203.200 C 148.315 203.200,149.137 202.921,149.478 202.579 C 149.899 202.158,150.469 202.039,151.250 202.211 C 152.094 202.396,152.465 202.296,152.643 201.832 C 152.976 200.964,155.051 201.013,155.568 201.900 C 155.844 202.375,155.980 202.423,155.988 202.051 C 155.998 201.586,156.101 201.586,156.664 202.051 C 157.273 202.554,157.281 202.524,156.764 201.688 C 155.799 200.128,159.900 199.340,161.364 200.804 C 161.989 201.429,162.334 201.272,162.472 200.300 C 162.644 199.090,167.029 198.690,167.472 199.843 C 167.699 200.436,167.850 200.381,168.606 199.434 C 169.872 197.845,175.597 197.587,174.624 199.162 C 174.500 199.362,174.757 199.432,175.195 199.317 C 175.633 199.203,175.888 198.942,175.761 198.737 C 175.635 198.532,175.749 198.103,176.015 197.782 C 176.816 196.817,182.337 197.131,181.734 198.107 C 181.582 198.352,181.671 198.403,181.949 198.232 C 182.209 198.071,182.371 197.657,182.311 197.311 C 182.243 196.927,182.635 196.535,183.321 196.301 C 184.572 195.875,187.200 196.226,187.200 196.818 C 187.200 197.623,188.351 197.155,188.472 196.300 C 188.648 195.062,192.266 194.728,193.103 195.873 C 193.528 196.455,193.697 196.491,193.966 196.055 C 194.199 195.678,194.383 195.649,194.574 195.957 C 194.724 196.201,195.062 196.395,195.324 196.388 C 195.586 196.381,195.485 196.192,195.100 195.968 C 194.156 195.418,194.215 194.513,195.217 194.195 C 196.242 193.869,199.200 194.345,199.200 194.835 C 199.200 195.628,200.352 195.144,200.472 194.300 C 200.632 193.175,203.277 192.789,204.339 193.736 C 204.979 194.306,206.334 193.668,205.742 193.075 C 205.230 192.563,207.370 191.958,208.824 192.204 C 210.804 192.539,211.000 192.511,211.000 191.900 C 211.000 191.195,214.544 191.012,215.261 191.680 C 215.975 192.345,216.800 192.517,216.800 192.000 C 216.800 191.780,216.620 191.600,216.400 191.600 C 215.736 191.600,215.951 190.504,216.669 190.229 C 217.038 190.087,218.118 190.089,219.069 190.231 C 220.522 190.449,220.800 190.384,220.800 189.824 C 220.800 189.277,221.144 189.178,222.700 189.278 C 223.787 189.348,224.567 189.585,224.522 189.833 C 224.479 190.072,224.687 190.267,224.984 190.267 C 225.409 190.267,225.425 190.108,225.062 189.521 C 224.465 188.558,225.352 187.908,226.836 188.218 C 227.501 188.358,228.056 188.214,228.385 187.818 C 228.667 187.478,229.357 187.200,229.917 187.200 C 230.478 187.200,231.276 186.893,231.691 186.518 C 232.309 185.959,232.585 185.923,233.222 186.321 C 233.934 186.766,234.000 186.694,234.000 185.465 C 234.000 184.046,233.013 182.800,231.888 182.800 C 231.532 182.800,231.096 182.560,230.920 182.267 C 230.744 181.974,230.071 181.749,229.424 181.767 C 228.488 181.793,228.198 181.596,228.006 180.804 C 227.844 180.131,227.666 179.969,227.459 180.304 C 227.062 180.947,225.105 180.944,224.459 180.300 C 224.184 180.025,223.303 179.800,222.501 179.800 C 221.279 179.800,221.005 179.639,220.805 178.804 C 220.643 178.131,220.466 177.969,220.259 178.304 C 219.794 179.056,217.200 178.947,217.200 178.175 C 217.200 177.666,216.882 177.599,215.477 177.809 C 213.723 178.072,212.409 177.357,212.972 176.445 C 213.105 176.231,213.002 175.925,212.745 175.766 C 212.469 175.595,212.383 175.649,212.536 175.896 C 212.852 176.407,211.927 176.800,210.411 176.800 C 209.520 176.800,209.230 176.573,209.012 175.706 C 208.772 174.750,208.688 174.699,208.349 175.306 C 207.872 176.159,206.275 176.213,205.600 175.400 C 205.326 175.070,204.488 174.800,203.738 174.800 C 202.875 174.800,202.288 174.572,202.137 174.179 C 201.967 173.738,201.584 173.628,200.813 173.797 C 199.273 174.135,198.362 173.040,199.441 172.145 C 200.103 171.596,200.061 171.598,199.114 172.158 C 197.898 172.877,196.400 173.011,196.400 172.400 C 196.400 172.180,196.152 172.000,195.849 172.000 C 195.546 172.000,195.086 171.744,194.826 171.431 C 194.232 170.715,195.061 169.200,196.047 169.200 C 196.407 169.200,196.912 168.947,197.169 168.638 C 197.456 168.292,198.091 168.147,198.818 168.262 C 199.702 168.401,200.000 168.291,200.000 167.824 C 200.000 166.880,203.076 166.951,203.324 167.900 C 203.440 168.342,203.524 168.204,203.554 167.527 C 203.607 166.300,204.569 165.826,206.186 166.232 C 206.940 166.421,207.382 166.303,207.736 165.819 C 208.494 164.784,211.442 165.100,211.289 166.200 C 211.186 166.946,211.215 166.953,211.729 166.306 C 212.031 165.925,212.406 165.739,212.561 165.894 C 212.716 166.049,212.717 165.848,212.563 165.447 C 212.034 164.070,214.709 163.442,216.224 164.587 C 216.983 165.162,217.981 165.447,217.481 164.947 C 216.235 163.702,220.107 162.587,222.056 163.630 C 222.724 163.987,222.895 163.924,223.070 163.253 C 223.400 161.993,227.600 161.613,227.600 162.843 C 227.600 163.631,228.753 163.138,228.872 162.300 C 228.991 161.464,229.193 161.402,231.700 161.432 C 233.631 161.454,234.400 161.319,234.400 160.956 C 234.400 160.105,237.704 159.827,239.120 160.559 C 240.306 161.172,240.349 161.164,240.473 160.296 C 240.592 159.459,240.792 159.402,243.500 159.426 C 245.506 159.443,246.400 159.303,246.400 158.970 C 246.400 158.705,247.045 158.368,247.834 158.220 C 249.440 157.919,251.600 158.269,251.600 158.832 C 251.600 159.627,252.752 159.146,252.872 158.300 C 253.033 157.166,257.029 156.688,257.438 157.754 C 257.739 158.540,258.800 158.112,258.800 157.204 C 258.800 155.967,261.462 155.620,263.360 156.610 C 263.997 156.942,264.612 157.121,264.726 157.007 C 264.840 156.893,264.807 156.800,264.653 156.800 C 264.498 156.800,264.565 156.440,264.800 156.000 C 265.284 155.095,268.675 154.835,269.480 155.640 C 269.801 155.961,269.993 155.852,270.187 155.241 C 270.532 154.154,272.064 153.788,274.213 154.280 C 275.573 154.591,275.885 154.565,275.727 154.153 C 275.461 153.460,277.220 153.044,279.258 153.317 C 280.517 153.486,281.038 153.362,281.655 152.745 C 282.296 152.104,282.763 152.005,284.164 152.216 C 285.532 152.421,285.936 152.343,286.130 151.837 C 286.476 150.937,289.037 150.980,289.549 151.894 C 289.889 152.503,289.970 152.457,290.205 151.523 C 290.569 150.073,293.600 149.466,293.600 150.843 C 293.600 151.040,294.095 151.175,294.700 151.146 C 295.677 151.097,295.697 151.071,294.877 150.915 C 293.341 150.621,293.946 149.422,295.703 149.276 C 296.526 149.208,297.200 149.002,297.200 148.819 C 297.200 148.636,297.650 148.374,298.200 148.236 C 298.851 148.072,299.200 147.705,299.200 147.182 C 299.200 146.695,298.808 146.231,298.200 146.000 C 297.650 145.791,297.200 145.435,297.200 145.210 C 297.200 144.984,296.589 144.800,295.843 144.800 C 294.979 144.800,294.398 144.572,294.245 144.172 C 294.092 143.775,293.731 143.632,293.258 143.781 C 292.182 144.123,291.200 143.634,291.200 142.757 C 291.200 142.341,291.020 142.000,290.800 142.000 C 290.580 142.000,290.400 142.180,290.400 142.400 C 290.400 143.061,287.714 142.873,287.453 142.194 C 287.277 141.734,286.850 141.647,285.691 141.832 C 284.556 142.013,284.025 141.912,283.632 141.438 C 283.293 141.031,282.465 140.800,281.338 140.800 C 279.494 140.800,278.517 139.869,279.637 139.177 C 280.040 138.928,279.954 138.853,279.323 138.901 C 278.846 138.937,278.540 139.103,278.644 139.271 C 278.921 139.719,276.994 140.115,276.029 139.809 C 275.573 139.664,275.200 139.209,275.200 138.797 C 275.200 138.384,275.016 137.933,274.790 137.794 C 274.565 137.655,274.430 137.779,274.490 138.070 C 274.667 138.922,271.263 139.030,270.938 138.183 C 270.793 137.806,270.924 137.367,271.242 137.166 C 272.152 136.589,271.384 136.752,270.146 137.398 C 268.120 138.454,266.159 137.914,266.706 136.451 C 266.914 135.896,266.854 135.878,266.303 136.326 C 265.389 137.069,262.642 136.787,262.480 135.934 C 262.409 135.555,262.667 135.187,263.077 135.080 C 263.669 134.927,263.643 134.884,262.933 134.846 C 262.457 134.821,262.000 135.001,261.918 135.247 C 261.630 136.109,258.645 135.894,258.475 135.000 C 258.391 134.560,258.133 134.020,257.902 133.800 C 257.617 133.528,257.571 133.557,257.758 133.888 C 257.931 134.196,257.669 134.468,257.048 134.624 C 255.476 135.018,254.596 134.677,254.632 133.688 C 254.664 132.798,254.184 132.457,253.933 133.191 C 253.678 133.940,251.372 134.115,250.694 133.437 C 250.344 133.087,249.414 132.800,248.629 132.800 C 247.638 132.800,247.200 132.620,247.200 132.212 C 247.200 131.783,246.793 131.648,245.700 131.712 C 244.398 131.788,244.198 131.684,244.188 130.921 C 244.181 130.438,244.031 129.898,243.855 129.721 C 243.678 129.545,243.593 129.666,243.667 129.991 C 243.830 130.712,242.102 131.062,241.474 130.434 C 241.235 130.195,240.747 130.000,240.390 130.000 C 240.032 130.000,239.303 129.535,238.770 128.966 L 237.800 127.933 238.924 126.965 C 239.699 126.298,240.335 126.069,240.970 126.228 C 241.596 126.385,241.969 126.257,242.133 125.830 C 242.440 125.031,243.759 125.016,244.546 125.803 C 245.153 126.410,245.868 125.958,245.428 125.245 C 245.307 125.050,245.469 124.674,245.788 124.410 C 246.475 123.840,248.780 124.234,248.840 124.932 C 248.862 125.189,249.004 124.950,249.156 124.400 C 249.395 123.534,249.693 123.383,251.369 123.276 C 252.434 123.208,253.564 122.893,253.881 122.576 C 254.609 121.848,255.893 121.845,257.277 122.567 C 258.281 123.091,258.362 123.070,258.477 122.264 C 258.636 121.148,262.243 120.725,262.646 121.776 C 262.777 122.117,263.037 122.301,263.224 122.185 C 263.412 122.069,263.469 121.724,263.352 121.418 C 262.849 120.109,265.677 119.612,267.720 120.651 C 268.424 121.009,268.871 121.165,268.714 120.998 C 268.038 120.280,269.243 119.200,270.714 119.205 C 272.735 119.213,274.045 119.604,273.734 120.107 C 273.584 120.349,273.670 120.404,273.938 120.238 C 274.192 120.081,274.400 119.607,274.400 119.184 C 274.400 118.083,276.117 117.767,278.027 118.518 C 279.535 119.110,279.818 119.004,279.650 117.907 C 279.529 117.120,282.755 117.040,284.500 117.786 C 285.039 118.017,285.200 117.893,285.200 117.250 C 285.200 115.849,289.568 115.592,290.530 116.937 C 290.752 117.248,290.807 117.204,290.695 116.800 C 290.311 115.407,294.922 114.411,295.446 115.775 C 295.715 116.477,296.800 116.135,296.800 115.349 C 296.800 114.483,298.561 113.866,300.169 114.168 C 300.956 114.315,301.600 114.608,301.600 114.818 C 301.600 115.623,302.751 115.155,302.872 114.300 C 303.048 113.065,307.442 112.893,307.340 114.126 C 307.283 114.813,307.320 114.815,308.040 114.164 C 308.458 113.785,308.800 113.242,308.800 112.956 C 308.800 112.072,311.605 111.788,312.915 112.540 C 314.430 113.410,314.720 113.374,314.872 112.300 C 315.037 111.137,319.030 110.692,319.451 111.789 C 319.730 112.517,320.800 111.886,320.800 110.994 C 320.800 109.910,323.753 109.626,325.024 110.587 C 326.133 111.427,326.725 111.335,326.872 110.300 C 326.976 109.569,327.294 109.376,328.562 109.272 C 330.641 109.102,332.109 109.488,331.758 110.112 C 331.569 110.446,331.658 110.436,332.041 110.080 C 332.349 109.794,332.600 109.344,332.600 109.080 C 332.600 108.153,335.563 107.764,336.877 108.518 C 338.432 109.411,338.719 109.379,338.872 108.300 C 338.991 107.464,339.193 107.402,341.700 107.432 C 343.610 107.454,344.400 107.317,344.400 106.964 C 344.400 106.689,344.940 106.345,345.600 106.200 C 346.899 105.915,349.200 106.276,349.200 106.765 C 349.200 106.931,349.470 107.067,349.800 107.067 C 350.130 107.067,350.316 106.983,350.214 106.881 C 348.946 105.613,353.082 104.607,354.455 105.849 C 355.124 106.455,355.204 106.430,355.641 105.469 C 356.191 104.263,357.664 103.834,359.463 104.356 C 360.544 104.670,360.756 104.613,360.926 103.962 C 361.168 103.035,364.288 102.843,364.630 103.733 C 364.742 104.027,365.103 104.267,365.431 104.267 C 365.823 104.267,365.892 104.132,365.632 103.872 C 365.113 103.353,365.823 102.000,366.614 102.000 C 366.936 102.000,367.200 101.730,367.200 101.400 C 367.200 100.873,364.255 100.800,343.100 100.800 C 303.175 100.799,282.400 100.400,282.400 99.635 C 282.400 99.057,274.272 99.000,191.801 99.000 C 141.972 99.000,101.362 99.054,101.558 99.119 M300.300 99.095 C 301.455 99.176,303.345 99.176,304.500 99.095 C 305.655 99.014,304.710 98.948,302.400 98.948 C 300.090 98.948,299.145 99.014,300.300 99.095 M312.900 99.099 C 316.145 99.166,321.455 99.166,324.700 99.099 C 327.945 99.032,325.290 98.977,318.800 98.977 C 312.310 98.977,309.655 99.032,312.900 99.099 M336.478 99.098 C 338.831 99.169,342.791 99.169,345.278 99.099 C 347.765 99.029,345.840 98.971,341.000 98.970 C 336.160 98.970,334.125 99.028,336.478 99.098 M368.283 100.788 C 369.048 101.683,369.339 101.627,368.967 100.657 C 368.828 100.296,368.465 100.000,368.161 100.000 C 367.731 100.000,367.758 100.176,368.283 100.788 M260.078 301.098 C 262.431 301.169,266.391 301.169,268.878 301.099 C 271.365 301.029,269.440 300.971,264.600 300.970 C 259.760 300.970,257.725 301.028,260.078 301.098 M293.700 301.097 C 295.405 301.172,298.195 301.172,299.900 301.097 C 301.605 301.022,300.210 300.961,296.800 300.961 C 293.390 300.961,291.995 301.022,293.700 301.097 " stroke="none" fill="#04e4bc" fill-rule="evenodd"></path><path id="path1" d="M98.900 99.070 C 98.625 99.178,98.400 99.532,98.400 99.857 C 98.400 100.182,98.229 100.342,98.020 100.212 C 97.510 99.897,96.890 101.146,96.895 102.476 C 96.904 104.382,98.148 104.280,99.174 102.289 C 99.489 101.678,100.147 101.078,100.636 100.955 C 101.124 100.833,101.614 100.388,101.724 99.967 C 101.921 99.218,103.465 99.200,178.062 99.098 L 254.200 98.993 176.800 98.933 C 134.230 98.900,99.175 98.962,98.900 99.070 M271.500 99.098 C 273.315 99.172,276.285 99.172,278.100 99.098 C 279.915 99.023,278.430 98.963,274.800 98.963 C 271.170 98.963,269.685 99.023,271.500 99.098 M282.400 99.635 C 282.400 100.400,303.175 100.799,343.100 100.800 C 364.255 100.800,367.200 100.873,367.200 101.400 C 367.200 101.730,366.941 102.000,366.624 102.000 C 365.971 102.000,365.622 102.449,365.407 103.566 C 365.279 104.228,365.459 104.316,366.711 104.199 C 369.031 103.984,369.820 102.416,368.384 100.875 C 367.936 100.394,367.702 100.000,367.864 100.000 C 368.027 100.000,367.943 99.783,367.678 99.518 C 366.843 98.683,282.400 98.798,282.400 99.635 M360.926 103.962 C 360.756 104.613,360.544 104.670,359.463 104.356 C 357.691 103.841,356.191 104.264,355.660 105.427 L 355.210 106.415 357.371 106.239 C 358.559 106.143,359.952 105.788,360.466 105.451 C 361.003 105.099,361.911 104.915,362.600 105.018 C 364.064 105.237,365.002 104.703,364.671 103.840 C 364.292 102.853,361.190 102.953,360.926 103.962 M96.665 105.800 C 96.507 106.900,96.254 108.880,96.103 110.200 C 95.734 113.432,95.737 288.116,96.106 290.400 C 96.266 291.390,96.524 293.010,96.678 294.000 L 96.959 295.800 97.338 293.800 C 98.528 287.510,97.989 214.400,96.753 214.400 C 96.030 214.400,96.000 213.831,96.000 200.000 C 96.000 190.132,96.133 185.600,96.424 185.600 C 96.657 185.600,96.721 185.825,96.567 186.100 C 96.413 186.375,96.604 186.302,96.991 185.939 C 97.838 185.142,98.198 110.856,97.377 106.200 L 96.954 103.800 96.665 105.800 M350.281 106.133 L 349.669 107.066 352.017 107.017 C 354.639 106.963,355.151 106.704,354.408 105.810 C 353.585 104.818,351.010 105.020,350.281 106.133 M345.100 106.276 C 344.715 106.376,344.400 106.685,344.400 106.961 C 344.400 107.318,343.617 107.454,341.700 107.432 C 339.288 107.403,338.988 107.486,338.885 108.204 C 338.747 109.163,343.078 109.582,343.438 108.644 C 343.559 108.329,344.253 108.199,345.370 108.283 C 347.403 108.436,349.200 107.860,349.200 107.057 C 349.200 106.191,347.017 105.775,345.100 106.276 M333.400 108.368 C 332.960 108.540,332.592 108.932,332.582 109.240 C 332.572 109.548,332.302 109.717,331.982 109.615 C 330.170 109.037,326.999 109.410,326.883 110.214 C 326.743 111.192,331.057 111.638,331.424 110.683 C 331.554 110.343,332.318 110.218,333.779 110.299 C 334.969 110.364,336.051 110.242,336.184 110.026 C 336.317 109.811,336.690 109.736,337.013 109.860 C 337.904 110.202,337.736 108.901,336.826 108.414 C 335.935 107.937,334.553 107.919,333.400 108.368 M321.400 110.306 C 319.781 111.495,320.030 112.323,322.011 112.339 C 323.095 112.347,324.081 112.192,324.203 111.994 C 324.326 111.797,324.690 111.736,325.013 111.860 C 325.904 112.202,325.736 110.901,324.826 110.414 C 323.934 109.937,321.986 109.875,321.400 110.306 M315.085 111.449 C 314.080 112.453,314.856 113.063,317.100 113.032 C 319.123 113.004,319.400 112.904,319.400 112.200 C 319.400 111.378,315.785 110.748,315.085 111.449 M309.600 112.258 C 309.270 112.349,308.802 112.847,308.559 113.366 C 308.107 114.332,311.634 114.916,312.218 113.971 C 312.332 113.786,312.690 113.736,313.013 113.860 C 313.904 114.202,313.736 112.901,312.826 112.414 C 312.059 112.003,310.754 111.940,309.600 112.258 M303.067 113.467 C 302.141 114.392,302.880 115.032,304.961 115.106 C 307.090 115.181,308.013 114.592,307.378 113.564 C 307.120 113.147,303.469 113.064,303.067 113.467 M297.500 114.432 C 297.115 114.656,296.800 115.086,296.800 115.387 C 296.800 115.687,296.575 116.013,296.300 116.111 C 296.025 116.208,296.747 116.293,297.905 116.298 C 299.063 116.303,300.103 116.156,300.218 115.971 C 300.332 115.786,300.690 115.736,301.013 115.860 C 301.408 116.012,301.600 115.825,301.600 115.289 C 301.600 114.109,298.991 113.563,297.500 114.432 M291.009 115.813 C 290.444 116.248,289.741 116.350,288.548 116.171 C 286.384 115.847,285.200 116.235,285.200 117.270 C 285.200 117.894,285.036 118.015,284.500 117.786 C 282.291 116.842,279.806 117.131,279.714 118.343 C 279.649 119.213,282.543 119.284,285.083 118.475 C 285.788 118.250,286.730 118.161,287.177 118.278 C 287.623 118.395,288.306 118.350,288.694 118.180 C 289.082 118.009,289.562 117.854,289.760 117.835 C 289.958 117.816,290.260 117.440,290.432 117.000 C 290.603 116.560,290.756 116.397,290.772 116.638 C 290.830 117.539,295.400 117.106,295.400 116.200 C 295.400 115.153,292.229 114.874,291.009 115.813 M274.900 118.265 C 274.625 118.376,274.400 118.807,274.400 119.223 C 274.400 119.870,274.251 119.924,273.374 119.590 C 271.581 118.908,269.359 119.110,268.749 120.009 C 268.258 120.733,268.065 120.767,266.914 120.327 C 265.232 119.684,263.418 120.268,263.356 121.471 C 263.303 122.519,266.706 122.553,267.899 121.516 C 268.367 121.110,269.171 120.958,270.316 121.059 C 271.260 121.143,272.428 120.999,272.913 120.740 C 273.397 120.480,274.715 120.251,275.840 120.230 C 278.562 120.179,279.830 119.244,278.150 118.527 C 276.953 118.016,275.756 117.919,274.900 118.265 M258.667 121.467 C 257.846 122.288,258.478 123.004,260.100 123.092 C 262.081 123.200,263.017 122.744,262.671 121.840 C 262.421 121.188,259.242 120.892,258.667 121.467 M253.881 122.576 C 253.564 122.893,252.427 123.208,251.353 123.276 C 249.719 123.380,249.380 123.538,249.279 124.244 C 249.143 125.201,252.133 125.432,253.243 124.550 C 253.549 124.307,254.311 124.182,254.937 124.273 C 255.562 124.363,256.298 124.250,256.573 124.022 C 256.849 123.794,257.170 123.703,257.287 123.821 C 257.405 123.938,257.610 123.751,257.743 123.404 C 258.198 122.218,254.939 121.518,253.881 122.576 M245.743 124.493 C 244.753 126.095,245.258 126.404,248.300 126.057 C 249.176 125.957,248.855 124.508,247.900 124.252 C 246.560 123.893,246.080 123.947,245.743 124.493 M242.133 125.830 C 241.969 126.257,241.596 126.385,240.970 126.228 C 240.335 126.069,239.699 126.298,238.924 126.965 L 237.800 127.933 238.770 128.966 C 239.303 129.535,240.057 130.000,240.446 130.000 C 240.835 130.000,241.264 130.180,241.400 130.400 C 241.673 130.842,243.320 130.946,243.719 130.547 C 244.168 130.098,243.195 128.800,242.410 128.800 C 241.516 128.800,241.004 128.168,241.600 127.800 C 241.827 127.660,241.922 127.397,241.810 127.217 C 241.699 127.037,242.236 126.974,243.004 127.077 C 244.527 127.282,245.447 126.255,244.358 125.566 C 243.482 125.011,242.398 125.140,242.133 125.830 M244.159 130.680 C 244.197 131.717,244.311 131.793,245.700 131.712 C 246.793 131.648,247.200 131.783,247.200 132.212 C 247.200 132.631,247.659 132.800,248.800 132.800 C 249.680 132.800,250.400 132.968,250.400 133.173 C 250.400 133.741,251.805 134.064,252.986 133.768 C 253.908 133.536,254.355 132.328,253.502 132.374 C 253.338 132.383,252.217 132.021,251.011 131.570 C 249.772 131.106,248.297 130.831,247.621 130.938 C 246.921 131.048,246.461 130.956,246.512 130.716 C 246.561 130.491,246.330 130.255,246.000 130.192 C 245.670 130.129,245.112 129.961,244.759 129.819 C 244.258 129.616,244.128 129.804,244.159 130.680 M254.524 133.455 C 254.046 134.700,255.964 135.276,257.626 134.386 C 258.270 134.041,258.400 134.105,258.400 134.762 C 258.400 135.845,259.001 136.126,260.651 135.817 C 262.584 135.454,262.331 134.346,260.215 133.906 C 259.346 133.726,258.413 133.663,258.143 133.767 C 257.873 133.870,257.580 133.740,257.493 133.478 C 257.279 132.835,254.769 132.815,254.524 133.455 M263.077 135.080 C 262.667 135.187,262.409 135.555,262.480 135.934 C 262.642 136.787,265.389 137.069,266.303 136.326 C 266.856 135.876,266.914 135.897,266.699 136.471 C 266.269 137.617,267.437 138.209,269.201 137.738 C 270.557 137.376,270.763 137.415,270.933 138.064 C 271.141 138.859,274.129 139.162,274.580 138.432 C 275.007 137.741,273.659 136.893,272.319 137.009 C 271.593 137.072,270.756 136.924,270.459 136.679 C 269.934 136.247,265.006 134.822,264.200 134.869 C 263.980 134.882,263.475 134.977,263.077 135.080 M275.098 138.578 C 275.330 139.794,276.792 140.314,278.190 139.677 C 278.974 139.320,279.152 139.375,279.323 140.027 C 279.485 140.646,279.882 140.800,281.314 140.800 C 282.463 140.800,283.291 141.028,283.632 141.438 C 284.025 141.912,284.556 142.013,285.691 141.832 C 286.850 141.647,287.277 141.734,287.453 142.194 C 287.714 142.873,290.400 143.061,290.400 142.400 C 290.400 142.180,290.580 142.000,290.800 142.000 C 291.020 142.000,291.200 142.341,291.200 142.757 C 291.200 143.634,292.182 144.123,293.258 143.781 C 293.731 143.632,294.092 143.775,294.245 144.172 C 294.398 144.572,294.979 144.800,295.843 144.800 C 296.589 144.800,297.200 144.984,297.200 145.210 C 297.200 145.435,297.650 145.791,298.200 146.000 C 298.808 146.231,299.200 146.695,299.200 147.182 C 299.200 147.705,298.851 148.072,298.200 148.236 C 297.650 148.374,297.200 148.636,297.200 148.819 C 297.200 149.002,296.526 149.208,295.703 149.276 C 293.720 149.440,293.409 150.582,295.246 150.949 C 296.179 151.136,296.743 151.014,297.307 150.503 C 297.734 150.116,298.155 149.845,298.242 149.900 C 298.778 150.239,299.600 149.897,299.600 149.333 C 299.600 148.967,299.718 148.785,299.863 148.930 C 300.315 149.381,301.200 148.348,301.200 147.369 C 301.200 145.843,296.534 142.132,295.684 142.982 C 295.576 143.090,295.018 142.928,294.444 142.620 C 293.024 141.861,289.161 140.706,288.903 140.963 C 288.789 141.078,288.326 140.974,287.875 140.733 C 286.700 140.104,282.690 139.221,282.249 139.494 C 282.040 139.623,282.012 139.504,282.186 139.223 C 282.421 138.843,282.123 138.772,280.948 138.931 C 279.966 139.064,279.181 138.948,278.800 138.614 C 277.475 137.451,274.878 137.425,275.098 138.578 M290.954 150.296 C 289.538 151.261,289.929 152.391,291.621 152.228 C 293.464 152.051,294.118 151.638,293.679 150.928 C 293.304 150.320,291.524 149.908,290.954 150.296 M286.140 151.813 C 285.935 152.346,285.553 152.424,284.164 152.216 C 282.763 152.005,282.296 152.104,281.655 152.745 C 281.038 153.362,280.517 153.486,279.258 153.317 C 277.220 153.044,275.461 153.460,275.727 154.153 C 275.885 154.565,275.573 154.591,274.213 154.280 C 272.064 153.788,270.532 154.154,270.187 155.241 C 269.993 155.852,269.801 155.961,269.480 155.640 C 268.675 154.835,265.284 155.095,264.800 156.000 C 264.565 156.440,264.423 156.815,264.486 156.833 C 266.510 157.425,271.048 156.725,270.538 155.900 C 270.409 155.691,270.673 155.718,271.125 155.960 C 272.141 156.504,273.600 156.535,273.600 156.013 C 273.600 155.799,273.862 155.726,274.181 155.848 C 274.501 155.971,275.142 155.806,275.605 155.481 C 276.133 155.112,277.057 154.951,278.078 155.050 C 278.977 155.138,279.961 154.998,280.274 154.739 C 280.585 154.480,281.751 154.246,282.864 154.218 C 284.132 154.186,285.059 153.945,285.344 153.573 C 285.630 153.200,286.470 152.983,287.600 152.990 C 289.137 152.998,289.400 152.883,289.400 152.200 C 289.400 151.122,286.536 150.781,286.140 151.813 M259.500 156.256 C 259.115 156.368,258.800 156.790,258.800 157.196 C 258.800 157.602,258.575 158.026,258.300 158.138 C 258.025 158.251,259.040 158.281,260.556 158.204 C 263.214 158.070,264.426 157.466,263.632 156.672 C 263.219 156.259,260.453 155.981,259.500 156.256 M253.085 157.449 C 251.992 158.541,252.839 159.245,255.100 159.124 C 257.092 159.017,257.400 158.893,257.400 158.200 C 257.400 157.378,253.785 156.748,253.085 157.449 M247.300 158.282 C 246.805 158.378,246.400 158.680,246.400 158.953 C 246.400 159.307,245.560 159.444,243.500 159.426 C 240.873 159.402,240.589 159.477,240.483 160.219 C 240.358 161.093,244.913 161.589,245.427 160.756 C 245.548 160.560,246.097 160.400,246.647 160.400 C 247.273 160.400,247.545 160.235,247.375 159.960 C 247.186 159.653,247.361 159.658,247.957 159.977 C 249.174 160.628,251.600 160.112,251.600 159.202 C 251.600 158.176,249.825 157.796,247.300 158.282 M235.300 160.282 C 234.805 160.378,234.400 160.682,234.400 160.960 C 234.400 161.318,233.621 161.454,231.700 161.432 C 229.175 161.402,228.992 161.460,228.869 162.321 C 228.735 163.273,232.291 163.622,233.408 162.767 C 233.632 162.595,235.060 162.355,236.580 162.234 C 239.577 161.995,240.545 161.332,239.083 160.519 C 238.202 160.029,237.003 159.954,235.300 160.282 M223.941 162.268 C 223.579 162.364,223.187 162.807,223.071 163.251 C 222.895 163.924,222.724 163.987,222.056 163.630 C 220.654 162.880,218.085 163.093,217.600 164.000 C 217.365 164.440,217.223 164.817,217.286 164.838 C 218.145 165.125,221.253 165.061,222.078 164.740 C 222.671 164.510,223.841 164.278,224.678 164.225 C 227.476 164.050,227.600 164.008,227.600 163.247 C 227.600 162.228,225.853 161.760,223.941 162.268 M212.842 164.366 C 212.525 164.566,212.393 165.006,212.537 165.380 C 212.686 165.768,212.627 165.941,212.395 165.797 C 212.178 165.663,212.000 165.745,212.000 165.979 C 212.000 166.555,215.912 166.250,216.528 165.625 C 217.566 164.571,214.287 163.451,212.842 164.366 M207.732 165.834 C 207.550 166.308,207.163 166.407,206.198 166.226 C 204.463 165.900,203.600 166.295,203.600 167.413 C 203.600 168.493,206.202 168.594,207.446 167.562 C 207.812 167.258,208.787 167.045,209.614 167.087 C 211.034 167.160,212.034 166.168,211.290 165.423 C 210.763 164.896,207.968 165.219,207.732 165.834 M200.000 167.824 C 200.000 168.291,199.702 168.401,198.818 168.262 C 198.091 168.147,197.456 168.292,197.169 168.638 C 196.912 168.947,196.407 169.200,196.047 169.200 C 195.061 169.200,194.232 170.715,194.826 171.431 C 195.086 171.744,195.546 172.000,195.849 172.000 C 196.152 172.000,196.400 172.180,196.400 172.400 C 196.400 172.620,196.839 172.800,197.376 172.800 C 197.913 172.800,198.464 172.620,198.600 172.400 C 198.736 172.180,199.062 172.003,199.324 172.006 C 199.623 172.010,199.586 172.148,199.226 172.376 C 198.252 172.992,199.478 174.090,200.813 173.797 C 201.584 173.628,201.967 173.738,202.137 174.179 C 202.288 174.572,202.875 174.800,203.738 174.800 C 204.488 174.800,205.326 175.070,205.600 175.400 C 206.275 176.213,207.872 176.159,208.349 175.306 C 208.688 174.699,208.772 174.750,209.012 175.706 C 209.239 176.610,209.505 176.799,210.543 176.794 C 213.122 176.781,213.302 175.093,210.732 175.017 C 209.999 174.995,209.130 174.804,208.800 174.591 C 207.896 174.009,204.757 173.140,203.400 173.095 C 202.740 173.073,202.080 172.876,201.933 172.657 C 201.786 172.438,201.281 172.201,200.812 172.129 C 200.342 172.057,199.395 171.708,198.708 171.353 L 197.460 170.707 198.758 170.161 C 199.472 169.861,199.962 169.462,199.846 169.274 C 199.730 169.087,200.392 168.949,201.318 168.967 C 202.770 168.995,203.017 168.877,203.128 168.100 C 203.242 167.293,203.087 167.200,201.628 167.200 C 200.420 167.200,200.000 167.361,200.000 167.824 M212.921 176.300 C 212.898 177.643,213.645 178.084,215.477 177.809 C 216.882 177.599,217.200 177.666,217.200 178.175 C 217.200 178.947,219.794 179.056,220.259 178.304 C 220.466 177.969,220.643 178.131,220.805 178.804 C 221.005 179.639,221.279 179.800,222.501 179.800 C 223.303 179.800,224.184 180.025,224.459 180.300 C 225.105 180.944,227.062 180.947,227.459 180.304 C 227.666 179.969,227.844 180.131,228.006 180.804 C 228.198 181.596,228.488 181.793,229.424 181.767 C 230.071 181.749,230.744 181.974,230.920 182.267 C 231.096 182.560,231.563 182.800,231.958 182.800 C 233.031 182.800,234.000 184.098,234.000 185.535 C 234.000 186.694,233.931 186.764,233.222 186.321 C 232.585 185.923,232.309 185.959,231.691 186.518 C 231.276 186.893,230.478 187.200,229.917 187.200 C 229.357 187.200,228.667 187.478,228.385 187.818 C 228.056 188.214,227.501 188.358,226.836 188.218 C 225.372 187.912,224.462 188.562,225.056 189.489 C 225.578 190.302,227.330 190.322,228.291 189.525 C 228.632 189.242,229.313 189.062,229.805 189.127 C 230.297 189.191,230.970 188.973,231.302 188.641 C 231.633 188.309,231.996 188.129,232.107 188.241 C 232.219 188.352,232.869 188.103,233.553 187.687 C 234.237 187.271,234.668 186.802,234.511 186.644 C 234.353 186.487,234.531 186.476,234.907 186.620 C 235.759 186.947,236.518 185.209,236.155 183.762 C 235.946 182.932,234.400 181.543,234.400 182.186 C 234.400 182.304,234.024 182.024,233.565 181.565 C 232.997 180.997,232.436 180.805,231.807 180.962 C 231.214 181.111,230.807 180.995,230.670 180.637 C 230.552 180.331,229.723 179.956,228.828 179.805 C 227.933 179.653,227.200 179.363,227.200 179.158 C 227.200 178.954,226.678 178.827,226.040 178.876 C 225.402 178.924,224.587 178.722,224.230 178.425 C 223.873 178.129,223.471 177.995,223.338 178.129 C 223.204 178.263,222.768 178.197,222.369 177.983 C 221.969 177.769,221.183 177.557,220.621 177.510 C 220.060 177.464,219.600 177.261,219.600 177.060 C 219.600 176.860,218.970 176.798,218.200 176.923 C 217.430 177.047,216.800 176.989,216.800 176.794 C 216.800 176.462,214.337 175.607,213.367 175.602 C 213.128 175.601,212.928 175.915,212.921 176.300 M220.800 189.845 C 220.800 190.380,220.502 190.446,219.069 190.231 C 216.364 189.826,215.277 190.535,216.591 191.848 C 217.284 192.541,219.701 192.242,220.421 191.375 C 220.724 191.010,221.380 190.905,222.434 191.052 C 223.631 191.220,224.055 191.122,224.241 190.638 C 224.375 190.289,224.690 190.128,224.942 190.279 C 225.194 190.430,225.153 190.249,224.851 189.877 C 224.094 188.943,220.800 188.918,220.800 189.845 M211.150 191.400 C 211.123 191.510,211.078 191.780,211.050 192.000 C 210.987 192.506,210.744 192.528,208.824 192.204 C 207.194 191.929,205.390 192.537,205.812 193.220 C 205.942 193.429,205.857 193.600,205.624 193.600 C 205.391 193.600,205.200 193.755,205.200 193.945 C 205.200 194.429,208.491 194.394,209.100 193.904 C 209.375 193.683,209.600 193.636,209.600 193.800 C 209.600 193.964,209.851 193.890,210.158 193.635 C 210.464 193.381,211.544 193.156,212.558 193.136 C 213.571 193.115,214.400 192.931,214.400 192.726 C 214.400 192.521,214.568 192.456,214.772 192.583 C 214.977 192.709,215.270 192.610,215.424 192.362 C 215.577 192.114,215.454 191.753,215.151 191.561 C 214.569 191.193,211.235 191.058,211.150 191.400 M200.667 193.467 C 199.837 194.297,200.475 195.017,202.105 195.089 C 204.293 195.187,205.160 194.716,204.425 193.830 C 203.904 193.203,201.193 192.940,200.667 193.467 M194.954 194.283 C 193.577 195.262,193.980 196.225,195.801 196.304 C 196.790 196.347,197.600 196.223,197.600 196.029 C 197.600 195.834,197.940 195.764,198.355 195.872 C 199.221 196.099,199.686 195.586,199.252 194.884 C 198.893 194.304,195.577 193.840,194.954 194.283 M188.667 195.467 C 187.712 196.421,188.472 197.043,190.567 197.022 C 192.929 196.998,193.423 196.759,193.062 195.817 C 192.819 195.184,189.235 194.899,188.667 195.467 M182.907 196.390 C 182.325 196.637,182.097 196.987,182.252 197.392 C 182.454 197.917,182.323 197.951,181.420 197.607 C 178.970 196.676,174.590 197.523,175.767 198.701 C 176.253 199.187,180.163 199.129,181.000 198.624 C 181.440 198.359,182.655 198.202,183.700 198.275 C 184.745 198.349,185.600 198.244,185.600 198.042 C 185.600 197.840,185.940 197.764,186.355 197.872 C 187.237 198.103,187.683 197.582,187.231 196.851 C 186.824 196.192,184.064 195.898,182.907 196.390 M169.931 198.250 C 169.563 198.358,168.968 198.895,168.609 199.443 L 167.956 200.439 171.021 200.273 C 174.006 200.111,175.270 199.510,174.418 198.658 C 174.008 198.248,170.896 197.965,169.931 198.250 M162.684 199.449 C 161.659 200.474,162.459 201.041,164.900 201.021 C 167.126 201.002,167.400 200.912,167.400 200.200 C 167.400 199.378,163.394 198.740,162.684 199.449 M156.954 200.283 C 156.289 200.756,155.856 202.400,156.397 202.400 C 156.651 202.400,156.716 202.182,156.547 201.900 C 156.307 201.501,156.371 201.501,156.865 201.900 C 158.066 202.872,162.347 201.787,161.329 200.769 C 160.827 200.267,157.497 199.897,156.954 200.283 M152.651 201.810 C 152.465 202.296,152.106 202.399,151.250 202.211 C 150.469 202.039,149.899 202.158,149.478 202.579 C 149.137 202.921,148.315 203.200,147.652 203.200 C 146.989 203.200,146.336 203.380,146.200 203.600 C 146.064 203.820,145.648 204.001,145.276 204.002 C 143.988 204.006,142.146 205.857,142.634 206.658 C 143.304 207.757,145.627 208.887,146.848 208.708 C 147.677 208.586,147.995 208.736,148.148 209.322 C 148.319 209.976,148.576 210.056,149.775 209.831 C 150.947 209.611,151.200 209.683,151.200 210.233 C 151.200 210.793,151.520 210.871,153.164 210.713 C 154.631 210.572,155.079 210.651,154.935 211.026 C 154.680 211.690,156.130 212.123,157.558 211.809 C 158.386 211.627,158.764 211.729,158.937 212.179 C 159.198 212.860,160.400 213.042,160.400 212.400 C 160.400 211.673,161.271 211.985,161.481 212.787 C 161.748 213.810,162.868 214.141,164.990 213.822 C 166.328 213.622,166.753 213.700,166.938 214.183 C 167.210 214.890,170.585 215.071,171.000 214.400 C 171.416 213.726,172.000 213.955,172.000 214.792 C 172.000 216.147,175.668 216.384,176.473 215.082 C 176.646 214.802,176.913 215.044,177.167 215.714 C 177.666 217.024,181.006 217.371,181.471 216.160 C 181.815 215.262,180.921 214.833,179.021 214.984 C 178.130 215.055,177.168 214.924,176.883 214.694 C 176.258 214.186,171.290 213.149,168.800 213.006 C 167.810 212.949,166.820 212.858,166.600 212.804 C 166.380 212.750,166.065 212.727,165.900 212.753 C 165.735 212.779,165.600 212.641,165.600 212.446 C 165.600 212.251,164.597 211.967,163.371 211.814 C 162.146 211.661,160.481 211.254,159.671 210.910 C 158.253 210.308,157.094 210.026,155.400 209.873 C 154.960 209.833,154.348 209.561,154.041 209.270 C 153.696 208.943,152.898 208.807,151.959 208.915 C 151.083 209.016,150.471 208.924,150.518 208.699 C 150.563 208.483,150.293 208.254,149.917 208.191 C 149.542 208.128,148.659 207.789,147.956 207.438 C 147.253 207.087,146.435 206.800,146.139 206.800 C 145.842 206.800,145.600 206.663,145.600 206.496 C 145.600 206.028,147.334 205.019,147.930 205.141 C 148.221 205.200,148.671 205.083,148.930 204.881 C 149.188 204.678,150.013 204.396,150.762 204.254 C 151.511 204.112,152.387 203.777,152.708 203.511 C 153.029 203.244,153.766 203.020,154.346 203.013 C 155.129 203.003,155.400 202.794,155.400 202.200 C 155.400 201.144,153.036 200.809,152.651 201.810 M182.000 215.971 C 182.000 216.207,182.159 216.400,182.353 216.400 C 182.548 216.400,182.808 216.786,182.931 217.258 C 183.134 218.034,183.347 218.094,185.147 217.881 C 186.621 217.706,187.264 217.795,187.619 218.222 C 188.176 218.893,190.890 218.994,192.026 218.386 C 192.669 218.042,192.800 218.105,192.800 218.759 C 192.800 220.101,197.172 220.421,197.216 219.082 C 197.225 218.817,197.501 219.095,197.829 219.700 C 198.535 221.002,201.811 221.359,202.262 220.183 C 202.614 219.266,202.151 219.016,200.074 218.998 C 199.043 218.989,197.965 218.834,197.677 218.653 C 197.390 218.472,196.760 218.272,196.277 218.208 C 195.795 218.144,194.600 217.902,193.622 217.671 C 192.643 217.439,191.698 217.339,191.522 217.448 C 191.345 217.558,191.200 217.471,191.200 217.256 C 191.200 217.041,190.525 216.908,189.700 216.961 C 188.875 217.013,187.840 216.838,187.400 216.571 C 186.285 215.893,182.000 215.418,182.000 215.971 M203.005 220.427 C 203.287 221.890,204.528 222.330,206.719 221.743 C 207.935 221.417,207.700 220.230,206.395 220.104 C 205.848 220.051,204.822 219.896,204.115 219.761 C 202.939 219.535,202.844 219.592,203.005 220.427 M208.542 221.072 C 206.975 221.642,208.594 222.883,210.679 222.710 C 212.526 222.557,212.903 222.646,213.262 223.316 C 213.629 224.001,213.956 224.068,215.841 223.847 C 217.662 223.633,218.000 223.694,218.000 224.235 C 218.000 224.855,220.506 224.934,222.382 224.374 C 222.702 224.278,222.975 224.380,222.988 224.600 C 223.077 226.063,225.628 226.594,226.352 225.300 C 226.700 224.679,226.791 224.724,227.162 225.700 C 227.609 226.875,230.420 227.325,231.517 226.397 C 231.779 226.175,231.911 226.109,231.811 226.249 C 231.128 227.207,232.551 228.083,234.393 227.839 C 235.902 227.638,236.358 227.714,236.542 228.192 C 236.692 228.584,237.312 228.805,238.287 228.813 C 239.119 228.820,240.160 229.098,240.600 229.431 C 241.157 229.852,241.856 229.959,242.900 229.783 C 244.110 229.579,244.400 229.653,244.400 230.165 C 244.400 230.947,247.034 231.069,247.319 230.300 C 247.422 230.023,247.707 230.309,247.959 230.943 C 248.371 231.982,248.541 232.063,249.807 231.825 C 250.909 231.618,251.200 231.693,251.200 232.182 C 251.200 232.567,251.561 232.800,252.157 232.800 C 252.684 232.800,253.218 233.070,253.345 233.400 C 253.471 233.730,253.851 234.000,254.187 234.000 C 254.930 234.000,254.970 234.442,254.300 235.252 C 253.462 236.264,251.686 237.200,250.602 237.200 C 250.037 237.200,249.474 237.462,249.351 237.783 C 249.197 238.185,248.777 238.295,247.999 238.140 C 247.055 237.951,246.769 238.101,246.251 239.057 C 245.911 239.686,245.625 239.975,245.616 239.700 C 245.592 238.943,242.830 239.056,242.535 239.826 C 242.353 240.299,241.941 240.396,240.847 240.222 C 239.208 239.961,238.622 240.234,238.248 241.433 C 237.959 242.360,240.077 242.703,241.100 241.896 C 241.375 241.680,241.600 241.636,241.600 241.800 C 241.600 241.964,241.885 241.861,242.234 241.572 C 242.582 241.283,243.347 241.036,243.934 241.023 C 244.520 241.010,245.228 240.853,245.507 240.672 C 245.785 240.492,246.767 240.270,247.688 240.178 C 248.625 240.085,249.512 239.744,249.702 239.403 C 249.921 239.012,250.366 238.877,250.951 239.023 C 251.517 239.165,252.054 239.017,252.375 238.630 C 252.659 238.288,253.050 238.107,253.245 238.228 C 253.440 238.349,253.600 238.262,253.600 238.036 C 253.600 237.810,253.870 237.729,254.200 237.855 C 254.585 238.003,254.800 237.847,254.800 237.419 C 254.800 237.053,254.978 236.863,255.196 236.998 C 256.083 237.545,256.987 234.544,256.267 233.445 C 255.553 232.356,252.163 230.652,251.512 231.055 C 251.291 231.191,250.973 231.079,250.804 230.806 C 250.310 230.007,246.332 228.825,244.891 229.049 C 244.145 229.165,243.629 229.086,243.691 228.866 C 243.751 228.654,243.668 228.455,243.506 228.424 C 243.344 228.394,242.469 228.107,241.563 227.787 C 240.656 227.467,239.754 227.305,239.557 227.426 C 239.361 227.548,239.200 227.471,239.200 227.255 C 239.200 227.039,238.615 226.913,237.900 226.976 C 237.185 227.038,236.150 226.852,235.600 226.563 C 234.267 225.862,230.988 225.115,228.962 225.051 C 228.061 225.023,227.071 224.802,226.762 224.560 C 226.084 224.028,222.021 223.124,219.789 223.007 C 218.902 222.961,217.813 222.728,217.368 222.490 C 216.923 222.252,215.668 221.999,214.579 221.928 C 213.491 221.858,212.482 221.637,212.338 221.438 C 212.061 221.055,209.317 220.790,208.542 221.072 M234.686 241.448 C 233.776 242.357,234.430 243.251,235.900 243.108 C 237.071 242.994,237.400 242.790,237.400 242.181 C 237.400 241.381,235.315 240.818,234.686 241.448 M230.300 242.262 C 229.915 242.370,229.600 242.670,229.600 242.929 C 229.600 243.245,228.952 243.355,227.634 243.264 C 225.992 243.150,225.596 243.260,225.237 243.930 C 224.863 244.630,224.657 244.676,223.632 244.290 C 222.150 243.730,220.604 244.349,220.515 245.538 C 220.438 246.556,223.294 246.540,224.759 245.514 C 225.257 245.165,226.187 244.975,226.975 245.062 C 227.722 245.144,228.571 244.984,228.866 244.706 C 229.160 244.428,230.258 244.188,231.306 244.174 C 233.336 244.146,234.158 243.703,233.663 242.903 C 233.318 242.344,231.345 241.968,230.300 242.262 M215.847 245.810 C 215.388 246.269,214.843 246.385,214.006 246.201 C 212.551 245.882,211.200 246.265,211.200 246.998 C 211.200 247.418,210.701 247.491,209.009 247.316 C 207.192 247.128,206.773 247.205,206.559 247.762 C 206.350 248.306,205.977 248.386,204.596 248.179 C 202.881 247.921,200.976 248.514,201.386 249.178 C 201.501 249.364,201.326 249.619,200.998 249.746 C 200.669 249.872,200.400 249.801,200.400 249.587 C 200.400 248.760,196.907 249.148,196.684 250.000 C 196.465 250.838,195.424 251.086,195.000 250.400 C 194.603 249.758,192.861 249.939,192.100 250.700 C 191.582 251.218,190.895 251.368,189.461 251.277 C 187.998 251.183,187.401 251.320,187.025 251.833 C 186.645 252.353,186.197 252.451,185.118 252.248 C 183.494 251.944,182.400 252.252,182.400 253.014 C 182.400 253.415,181.872 253.488,180.209 253.316 C 178.392 253.128,177.973 253.205,177.759 253.762 C 177.551 254.305,177.177 254.386,175.815 254.181 C 174.494 253.983,173.973 254.084,173.412 254.645 C 172.914 255.143,172.215 255.328,171.127 255.249 C 169.584 255.138,168.214 255.775,168.612 256.420 C 168.724 256.601,168.242 256.584,167.542 256.383 C 166.215 256.003,164.400 256.250,164.400 256.811 C 164.400 256.989,164.302 257.389,164.183 257.701 C 163.924 258.376,166.291 258.534,167.100 257.896 C 167.375 257.680,167.600 257.636,167.600 257.800 C 167.600 257.964,167.886 257.860,168.237 257.570 C 168.587 257.279,169.488 257.083,170.239 257.133 C 170.990 257.184,172.009 257.007,172.503 256.740 C 172.996 256.472,173.895 256.290,174.500 256.333 C 175.105 256.377,175.600 256.235,175.600 256.019 C 175.600 255.802,175.872 255.730,176.205 255.857 C 176.538 255.985,177.096 255.852,177.445 255.563 C 177.797 255.270,178.775 255.086,179.641 255.149 C 180.654 255.222,181.273 255.075,181.406 254.731 C 181.540 254.383,182.389 254.188,183.864 254.164 C 185.291 254.141,186.279 253.921,186.558 253.564 C 186.827 253.221,187.529 253.051,188.347 253.129 C 189.089 253.200,190.224 253.039,190.870 252.771 C 191.517 252.503,192.760 252.244,193.634 252.194 C 194.507 252.145,195.531 251.841,195.911 251.519 C 196.337 251.157,197.249 250.974,198.300 251.040 C 199.235 251.099,200.000 250.968,200.000 250.750 C 200.000 250.531,200.180 250.464,200.400 250.600 C 200.620 250.736,200.800 250.684,200.800 250.484 C 200.800 250.284,201.492 250.189,202.338 250.274 C 204.017 250.442,206.177 249.810,205.832 249.252 C 205.713 249.060,206.558 248.950,207.708 249.007 C 208.859 249.064,210.035 248.921,210.323 248.688 C 210.611 248.455,211.732 248.230,212.815 248.188 C 213.897 248.146,215.069 247.874,215.419 247.584 C 215.768 247.294,216.807 247.044,217.727 247.029 C 219.124 247.005,219.400 246.868,219.400 246.200 C 219.400 245.129,216.812 244.845,215.847 245.810 M160.523 257.972 C 160.270 258.942,160.321 258.929,159.035 258.343 C 158.227 257.975,157.839 258.014,157.030 258.543 C 156.479 258.904,155.504 259.200,154.863 259.200 C 154.222 259.200,153.471 259.474,153.193 259.809 C 152.915 260.144,152.388 260.323,152.023 260.207 C 151.657 260.091,151.007 260.261,150.579 260.585 C 150.151 260.909,149.440 261.186,149.000 261.201 C 146.469 261.283,145.523 264.800,148.031 264.800 C 148.400 264.800,148.938 265.084,149.227 265.432 C 149.535 265.804,150.136 265.991,150.686 265.886 C 151.252 265.777,151.752 265.943,151.956 266.307 C 152.179 266.705,152.697 266.847,153.497 266.730 C 154.382 266.600,154.831 266.758,155.184 267.322 C 155.573 267.946,155.953 268.046,157.190 267.848 C 158.372 267.659,158.771 267.748,158.961 268.242 C 159.147 268.727,159.636 268.846,161.003 268.737 C 162.242 268.639,162.800 268.748,162.800 269.089 C 162.800 269.812,164.603 270.147,165.955 269.676 C 166.980 269.318,167.151 269.370,167.340 270.092 C 167.534 270.835,167.772 270.894,169.740 270.691 C 171.701 270.489,171.946 270.549,172.137 271.282 C 172.331 272.022,172.554 272.073,174.524 271.827 C 176.349 271.599,176.739 271.663,176.955 272.227 C 177.166 272.776,177.614 272.865,179.427 272.714 C 181.325 272.557,181.702 272.643,182.060 273.313 C 182.431 274.005,182.751 274.064,184.846 273.827 C 186.685 273.619,187.190 273.675,187.107 274.079 C 186.936 274.913,191.135 275.034,191.454 274.204 C 191.818 273.255,191.384 273.036,189.083 273.008 C 187.937 272.995,186.775 272.842,186.500 272.668 C 186.225 272.495,185.997 272.498,185.994 272.676 C 185.991 272.854,185.856 272.809,185.694 272.575 C 185.329 272.046,181.212 271.138,178.800 271.054 C 177.810 271.019,176.730 270.813,176.400 270.596 C 175.635 270.092,171.101 269.162,168.962 269.070 C 168.061 269.032,167.071 268.801,166.762 268.558 C 166.087 268.027,162.351 267.149,160.400 267.062 C 159.630 267.028,158.898 266.864,158.774 266.697 C 158.483 266.305,154.500 265.164,153.200 265.100 C 152.650 265.072,151.981 264.769,151.713 264.425 C 151.445 264.081,151.220 263.940,151.213 264.110 C 151.199 264.450,148.800 263.312,148.800 262.966 C 148.800 262.849,148.961 262.852,149.158 262.974 C 149.354 263.095,150.209 262.905,151.058 262.550 C 151.906 262.196,152.600 261.969,152.600 262.046 C 152.600 262.123,153.026 261.887,153.546 261.523 C 154.066 261.158,154.733 260.953,155.027 261.066 C 155.322 261.179,155.952 260.999,156.427 260.666 C 156.903 260.333,157.543 260.157,157.849 260.274 C 158.155 260.392,158.886 260.173,159.473 259.789 C 160.060 259.404,161.183 259.069,161.970 259.044 C 163.118 259.007,163.400 258.841,163.400 258.199 C 163.400 257.002,160.830 256.799,160.523 257.972 M192.205 274.427 C 192.504 275.977,194.323 276.497,196.106 275.543 C 196.826 275.158,197.049 275.221,197.529 275.943 C 198.172 276.911,200.999 277.150,202.475 276.360 C 202.982 276.089,203.200 276.076,203.045 276.328 C 202.248 277.617,205.836 278.554,207.304 277.440 C 208.480 276.548,204.605 275.181,201.700 275.463 C 201.425 275.489,201.200 275.358,201.200 275.171 C 201.200 274.985,200.366 274.903,199.347 274.990 C 198.212 275.087,197.165 274.938,196.647 274.605 C 194.919 273.498,192.004 273.381,192.205 274.427 M209.101 277.100 C 207.477 277.467,209.101 278.800,211.171 278.800 C 212.958 278.800,214.142 278.009,213.426 277.293 C 213.174 277.040,209.995 276.898,209.101 277.100 M214.351 277.923 C 214.654 278.136,214.791 278.490,214.656 278.710 C 214.121 279.575,215.567 280.096,217.746 279.824 C 219.493 279.606,219.942 279.672,220.136 280.178 C 220.417 280.911,223.973 281.056,225.226 280.386 C 225.867 280.043,226.000 280.105,226.000 280.743 C 226.000 282.055,228.766 282.503,230.224 281.427 C 231.645 280.378,227.597 279.170,222.200 279.033 C 221.100 279.005,219.965 278.834,219.677 278.653 C 219.141 278.316,218.718 278.227,215.600 277.789 C 214.391 277.619,213.981 277.663,214.351 277.923 M232.300 281.114 C 231.522 281.275,231.448 281.540,231.956 282.342 C 232.311 282.903,235.227 282.825,237.106 282.203 C 237.857 281.955,237.967 282.022,237.748 282.592 C 237.225 283.954,240.389 284.532,242.367 283.436 C 243.762 282.663,242.531 282.081,239.166 281.921 C 237.755 281.855,236.358 281.571,236.061 281.290 C 235.568 280.822,234.053 280.751,232.300 281.114 M243.960 283.224 C 242.830 283.923,243.966 284.800,246.000 284.800 C 248.099 284.800,249.156 283.920,247.958 283.170 C 247.305 282.761,244.652 282.797,243.960 283.224 M249.320 284.574 C 249.919 285.883,251.275 286.254,253.376 285.684 C 254.833 285.288,255.065 285.327,255.634 286.064 C 256.284 286.906,258.787 286.974,261.073 286.212 C 261.814 285.965,261.913 286.045,261.731 286.742 C 261.443 287.842,263.169 288.285,265.376 287.678 C 266.826 287.278,267.059 287.314,267.549 288.015 C 268.172 288.906,271.064 289.115,272.456 288.370 C 273.127 288.011,273.295 288.077,273.477 288.774 C 273.836 290.145,278.062 290.415,278.501 289.096 C 278.592 288.824,278.972 289.090,279.377 289.708 C 280.170 290.919,283.338 291.302,284.332 290.308 C 284.721 289.919,285.014 290.055,285.736 290.961 C 286.548 291.979,286.822 292.077,288.224 291.853 C 289.091 291.714,290.008 291.571,290.262 291.534 C 291.004 291.426,290.392 290.411,289.456 290.198 C 286.871 289.610,283.538 289.125,281.600 289.054 C 280.390 289.010,279.133 288.808,278.806 288.606 C 277.975 288.089,272.239 287.120,269.600 287.049 C 268.390 287.017,267.025 286.778,266.566 286.517 C 266.108 286.256,264.578 285.988,263.166 285.921 C 261.723 285.853,260.352 285.565,260.033 285.262 C 259.643 284.892,258.848 284.790,257.482 284.937 C 256.174 285.078,255.207 284.967,254.648 284.613 C 254.182 284.318,252.684 283.952,251.320 283.801 L 248.840 283.526 249.320 284.574 M291.642 291.164 C 289.947 292.242,293.480 293.435,295.767 292.557 C 296.402 292.313,296.662 291.229,296.100 291.166 C 293.488 290.874,292.099 290.874,291.642 291.164 M296.800 291.723 C 296.800 293.636,298.277 294.397,300.719 293.743 C 301.728 293.473,301.786 292.341,300.800 292.173 C 297.443 291.600,296.800 291.528,296.800 291.723 M303.143 293.090 C 301.031 293.579,302.934 294.899,305.460 294.696 C 307.398 294.540,308.000 294.617,308.000 295.019 C 308.000 296.117,311.960 296.235,312.626 295.158 C 313.220 294.196,305.569 292.528,303.143 293.090 M313.410 295.519 C 312.989 296.615,313.236 296.800,315.125 296.800 C 317.210 296.800,319.074 298.420,318.553 299.778 C 318.236 300.604,319.344 300.599,320.171 299.771 C 321.551 298.392,320.453 296.577,317.581 295.486 C 315.512 294.701,313.718 294.715,313.410 295.519 M96.873 297.271 C 96.767 298.673,97.475 300.125,98.082 299.749 C 98.341 299.589,98.411 299.659,98.251 299.918 C 97.873 300.529,99.257 301.194,100.687 301.088 C 102.172 300.978,102.029 299.843,100.427 299.014 C 99.838 298.709,99.156 298.021,98.912 297.486 C 98.223 295.974,96.982 295.844,96.873 297.271 M245.219 299.500 C 238.007 299.584,235.358 299.744,235.134 300.107 C 234.911 300.469,231.987 300.654,224.115 300.803 C 218.222 300.915,236.800 300.981,265.400 300.951 C 294.000 300.920,317.445 300.874,317.500 300.848 C 317.874 300.669,317.485 299.641,316.967 299.443 C 316.369 299.213,266.268 299.253,245.219 299.500 " stroke="none" fill="#6aeed8" fill-rule="evenodd"></path></g></svg>